<svg width="137" height="46" viewBox="0 0 137 46" fill="none" xmlns="http://www.w3.org/2000/svg">
<path d="M76.6354 11.3083C79.3777 11.3083 81.1228 9.75498 81.1228 6.95897V4.34935C81.1228 1.55334 79.3777 0 76.6354 0C73.8931 0 72.1479 1.55334 72.1479 4.34935V6.95897C72.1479 9.75498 73.8931 11.3083 76.6354 11.3083ZM76.6354 9.47538C75.1084 9.47538 74.2047 8.51231 74.2047 7.0211V4.28722C74.2047 2.79601 75.1084 1.83294 76.6354 1.83294C78.1624 1.83294 79.0661 2.79601 79.0661 4.28722V7.0211C79.0661 8.51231 78.1624 9.47538 76.6354 9.47538Z" fill="white"/>
<path d="M83.6904 14.1975H85.6536V10.2054H85.9341C86.2613 10.7491 86.9313 11.3083 88.3336 11.3083C90.2034 11.3083 91.8239 9.87924 91.8239 7.36283V7.1143C91.8239 4.59789 90.1878 3.16881 88.3336 3.16881C86.9313 3.16881 86.2613 3.72802 85.9029 4.31829H85.6225V3.38628H83.6904V14.1975ZM87.7415 9.59964C86.5262 9.59964 85.6225 8.80744 85.6225 7.31623V7.1609C85.6225 5.66969 86.5418 4.87749 87.7415 4.87749C88.9413 4.87749 89.8606 5.66969 89.8606 7.1609V7.31623C89.8606 8.80744 88.9569 9.59964 87.7415 9.59964Z" fill="white"/>
<path d="M97.8491 11.3083C99.9682 11.3083 100.888 10.1122 101.324 9.28898L99.7189 8.45017C99.454 9.04044 99.0022 9.59964 97.9115 9.59964C96.8208 9.59964 95.995 8.86957 95.9482 7.8133H101.573V7.14537C101.573 4.78429 100.093 3.16881 97.818 3.16881C95.5119 3.16881 93.9538 4.72215 93.9538 7.14537V7.33177C93.9538 9.75498 95.5275 11.3083 97.8491 11.3083ZM95.9638 6.35316C96.104 5.46776 96.7429 4.87749 97.8024 4.87749C98.8152 4.87749 99.4852 5.46776 99.5787 6.35316H95.9638Z" fill="white"/>
<path d="M104.022 11.0909H105.985V7.17643C105.985 5.74736 106.686 4.90856 107.886 4.90856C108.945 4.90856 109.538 5.48329 109.538 6.6483V11.0909H111.501V6.49296C111.501 4.58235 110.301 3.26202 108.494 3.26202C107.107 3.26202 106.484 3.86782 106.234 4.39595H105.954V3.38628H104.022V11.0909Z" fill="white"/>
<path d="M113.514 11.0909H115.633L116.225 8.69871H120.121L120.713 11.0909H122.832L119.965 0.217467H116.381L113.514 11.0909ZM116.708 6.80363L118.033 1.50674H118.313L119.638 6.80363H116.708Z" fill="white"/>
<path d="M124.838 11.0909H126.895V7.1143H129.326C131.32 7.1143 132.816 5.80949 132.816 3.77462V3.55715C132.816 1.52227 131.383 0.217467 129.326 0.217467H124.838V11.0909ZM126.895 5.25029V2.08148H129.123C130.105 2.08148 130.759 2.65621 130.759 3.58822V3.74355C130.759 4.67555 130.089 5.25029 129.123 5.25029H126.895Z" fill="white"/>
<path d="M134.943 11.0909H137V0.217467H134.943V11.0909Z" fill="white"/>
<path d="M0 45.4321H5.83669V32.6161H18.3944V27.3311H5.83669V19.8881H19.4556V14.6032H0V45.4321Z" fill="white"/>
<path d="M98.1064 46C102.865 46 104.274 43.9206 104.891 42.4164H105.684V45.3806H111.059V29.542H98.0182V34.4971H105.332V34.9395C105.332 38.3904 103.481 40.8679 99.2518 40.8679C95.0224 40.8679 92.5552 38.0365 92.5552 33.7008V26.0912C92.5552 21.7554 95.0224 19.0124 99.1637 19.0124C103.305 19.0124 105.332 21.5785 105.332 24.8524V25.2063H111.059V25.0293C111.059 18.1276 106.742 13.7919 99.1637 13.7919C91.4978 13.7919 86.7396 18.2161 86.7396 26.1796V33.6123C86.7396 41.5758 91.7621 46 98.1064 46Z" fill="white"/>
<path d="M117.544 45.4321H137V40.1471H123.176V32.528H135.549V27.243H123.176V19.8881H137V14.6032H117.544V45.4321Z" fill="white"/>
<path d="M59.1775 45.4321H64.9173V33.8052H72.9182C74.614 33.8052 75.2663 34.7741 75.2663 36.1834V45.4321H81.0061V35.3466C81.0061 32.8803 79.6581 31.2948 77.3535 31.1627V30.37C79.919 29.313 81.8757 27.0669 81.8757 23.3674V22.8389C81.8757 17.8622 78.0927 14.6032 72.3964 14.6032H59.1775V45.4321ZM64.9173 28.5202V19.8881H71.7876C74.5705 19.8881 76.1359 21.5177 76.1359 23.984V24.4244C76.1359 26.8907 74.4836 28.5202 71.7876 28.5202H64.9173Z" fill="white"/>
<path fill-rule="evenodd" clip-rule="evenodd" d="M35.2205 14.8656C33.6932 15.1795 32.2404 15.7196 30.862 16.486C28.556 17.7557 26.7198 19.5334 25.3533 21.8189C24.3962 23.4537 23.7814 25.2401 23.5089 27.1781H28.5317C28.7338 25.9673 29.0978 24.8581 29.6236 23.8505C30.5062 22.2139 31.7161 20.9583 33.2534 20.0836C33.641 19.8631 34.0421 19.6704 34.4567 19.5055C34.7001 18.7718 34.8769 17.9942 34.9998 17.2124C35.1267 16.405 35.1942 15.6059 35.2205 14.8656ZM40.6206 18.9551C39.9456 18.8327 39.2407 18.7715 38.506 18.7715C37.4791 18.7715 36.5106 18.8911 35.6004 19.1301C35.7606 18.544 35.8828 17.9496 35.9746 17.3659C36.1198 16.4423 36.1911 15.53 36.213 14.695C36.637 14.636 37.0666 14.5937 37.5016 14.5682C38.8917 16.0395 39.9004 17.5377 40.6206 18.9551ZM41.8604 19.2591C42.5257 19.4673 43.1583 19.7421 43.7585 20.0836C45.2958 20.9583 46.4915 22.2139 47.3456 23.8505C47.8889 24.8581 48.265 25.9673 48.4739 27.1781H53.503C53.2305 25.2401 52.6157 23.4537 51.6586 21.8189C50.3206 19.5334 48.4843 17.7557 46.1499 16.486C43.9279 15.2353 41.4812 14.5872 38.8098 14.5416C40.1943 16.1331 41.178 17.7456 41.8604 19.2591Z" fill="white"/>
<path fill-rule="evenodd" clip-rule="evenodd" d="M48.4888 32.4444H53.503C53.2277 34.4134 52.6145 36.237 51.6635 37.9152C50.3249 40.2483 48.488 42.0774 46.1527 43.4024C43.8459 44.6986 41.2969 45.3467 38.506 45.3467C35.7434 45.3467 33.1945 44.6986 30.8592 43.4024C28.5524 42.0774 26.7155 40.2483 25.3484 37.9152C24.3974 36.237 23.7842 34.4134 23.5089 32.4444H28.2813C28.2943 28.118 29.6366 26.6864 32.1291 24.0281C32.472 23.6624 32.8367 23.2735 33.2227 22.8506C35.7869 20.0413 35.8938 14.5592 35.6266 12.1693C41.9304 17.3198 42.9721 23.4847 42.705 25.9233C44.6281 25.5722 45.0199 22.9482 44.9754 21.6801C47.3379 25.7353 48.3219 29.3585 48.4888 32.4444ZM33.0123 39.5818C32.7226 37.1451 33.009 34.2806 35.6266 32.8003C35.8047 33.727 36.5348 35.9023 39.6332 36.6046C38.3867 34.8488 36.5348 30.8104 39.099 26.9476C39.0545 28.3132 39.2326 31.2201 42.4379 34.2635C44.2856 36.018 45.0256 37.3679 45.2603 38.6146C44.8029 39.033 44.3029 39.4047 43.7604 39.7299C42.2225 40.6228 40.471 41.0693 38.506 41.0693C36.5409 41.0693 34.7894 40.6228 33.2515 39.7299C33.1709 39.6815 33.0911 39.6322 33.0123 39.5818Z" fill="url(#paint0_linear_180_24)"/>
<defs>
<linearGradient id="paint0_linear_180_24" x1="43.8426" y1="12.9766" x2="33.4829" y2="42.8212" gradientUnits="userSpaceOnUse">
<stop stop-color="#FF0000"/>
<stop offset="0.518642" stop-color="#FF3800"/>
<stop offset="1" stop-color="#FFB800"/>
</linearGradient>
</defs>
</svg>
